<svg width="236" height="262" viewBox="0 0 236 262" fill="none" xmlns="http://www.w3.org/2000/svg">
<circle cx="4" cy="4" r="4" fill="#F0F0F0"/>
<ellipse cx="21.2" cy="4" rx="3.2" ry="4" fill="#F0F0F0"/>
<circle cx="38" cy="4" r="4" fill="#F0F0F0"/>
<circle cx="54" cy="4" r="4" fill="#F0F0F0"/>
<circle cx="70" cy="4" r="4" fill="#F0F0F0"/>
<circle cx="86" cy="4" r="4" fill="#F0F0F0"/>
<circle cx="102" cy="4" r="4" fill="#F0F0F0"/>
<circle cx="118" cy="4" r="4" fill="#F0F0F0"/>
<circle cx="134" cy="4" r="4" fill="#F0F0F0"/>
<circle cx="150" cy="4" r="4" fill="#F0F0F0"/>
<circle cx="166" cy="4" r="4" fill="#F0F0F0"/>
<circle cx="182" cy="4" r="4" fill="#F0F0F0"/>
<circle cx="198" cy="4" r="4" fill="#F0F0F0"/>
<circle cx="214" cy="4" r="4" fill="#F0F0F0"/>
<circle cx="230" cy="4" r="4" fill="#F0F0F0"/>
<circle cx="4" cy="22" r="4" fill="#F0F0F0"/>
<circle cx="22" cy="22" r="4" fill="#F0F0F0"/>
<circle cx="40" cy="22" r="4" fill="#F0F0F0"/>
<circle cx="56" cy="22" r="4" fill="#F0F0F0"/>
<circle cx="72" cy="22" r="4" fill="#F0F0F0"/>
<circle cx="88" cy="22" r="4" fill="#F0F0F0"/>
<circle cx="104" cy="22" r="4" fill="#F0F0F0"/>
<circle cx="120" cy="22" r="4" fill="#F0F0F0"/>
<circle cx="136" cy="22" r="4" fill="#F0F0F0"/>
<circle cx="152" cy="22" r="4" fill="#F0F0F0"/>
<circle cx="168" cy="22" r="4" fill="#F0F0F0"/>
<circle cx="184" cy="22" r="4" fill="#F0F0F0"/>
<circle cx="200" cy="22" r="4" fill="#F0F0F0"/>
<circle cx="216" cy="22" r="4" fill="#F0F0F0"/>
<circle cx="232" cy="22" r="4" fill="#F0F0F0"/>
<circle cx="4" cy="40" r="4" fill="#F0F0F0"/>
<circle cx="22" cy="40" r="4" fill="#F0F0F0"/>
<circle cx="40" cy="40" r="4" fill="#F0F0F0"/>
<circle cx="56" cy="40" r="4" fill="#F0F0F0"/>
<circle cx="72" cy="40" r="4" fill="#F0F0F0"/>
<circle cx="88" cy="40" r="4" fill="#F0F0F0"/>
<circle cx="104" cy="40" r="4" fill="#F0F0F0"/>
<circle cx="120" cy="40" r="4" fill="#F0F0F0"/>
<circle cx="136" cy="40" r="4" fill="#F0F0F0"/>
<circle cx="152" cy="40" r="4" fill="#F0F0F0"/>
<circle cx="168" cy="40" r="4" fill="#F0F0F0"/>
<circle cx="184" cy="40" r="4" fill="#F0F0F0"/>
<circle cx="200" cy="40" r="4" fill="#F0F0F0"/>
<circle cx="216" cy="40" r="4" fill="#F0F0F0"/>
<circle cx="232" cy="40" r="4" fill="#F0F0F0"/>
<circle cx="4" cy="58" r="4" fill="#F0F0F0"/>
<circle cx="22" cy="58" r="4" fill="#F0F0F0"/>
<circle cx="40" cy="58" r="4" fill="#F0F0F0"/>
<circle cx="56" cy="58" r="4" fill="#F0F0F0"/>
<circle cx="72" cy="58" r="4" fill="#F0F0F0"/>
<circle cx="88" cy="58" r="4" fill="#F0F0F0"/>
<circle cx="104" cy="58" r="4" fill="#F0F0F0"/>
<circle cx="120" cy="58" r="4" fill="#F0F0F0"/>
<circle cx="136" cy="58" r="4" fill="#F0F0F0"/>
<circle cx="152" cy="58" r="4" fill="#F0F0F0"/>
<circle cx="168" cy="58" r="4" fill="#F0F0F0"/>
<circle cx="184" cy="58" r="4" fill="#F0F0F0"/>
<circle cx="200" cy="58" r="4" fill="#F0F0F0"/>
<circle cx="216" cy="58" r="4" fill="#F0F0F0"/>
<circle cx="232" cy="58" r="4" fill="#F0F0F0"/>
<circle cx="4" cy="76" r="4" fill="#F0F0F0"/>
<circle cx="22" cy="76" r="4" fill="#F0F0F0"/>
<circle cx="40" cy="76" r="4" fill="#F0F0F0"/>
<circle cx="56" cy="76" r="4" fill="#F0F0F0"/>
<circle cx="72" cy="76" r="4" fill="#F0F0F0"/>
<circle cx="88" cy="76" r="4" fill="#F0F0F0"/>
<circle cx="104" cy="76" r="4" fill="#F0F0F0"/>
<circle cx="120" cy="76" r="4" fill="#F0F0F0"/>
<circle cx="136" cy="76" r="4" fill="#F0F0F0"/>
<circle cx="152" cy="76" r="4" fill="#F0F0F0"/>
<circle cx="168" cy="76" r="4" fill="#F0F0F0"/>
<circle cx="184" cy="76" r="4" fill="#F0F0F0"/>
<circle cx="200" cy="76" r="4" fill="#F0F0F0"/>
<circle cx="216" cy="76" r="4" fill="#F0F0F0"/>
<circle cx="232" cy="76" r="4" fill="#F0F0F0"/>
<circle cx="4" cy="94" r="4" fill="#F0F0F0"/>
<circle cx="22" cy="94" r="4" fill="#F0F0F0"/>
<circle cx="40" cy="94" r="4" fill="#F0F0F0"/>
<circle cx="56" cy="94" r="4" fill="#F0F0F0"/>
<circle cx="72" cy="94" r="4" fill="#F0F0F0"/>
<circle cx="88" cy="94" r="4" fill="#F0F0F0"/>
<circle cx="104" cy="94" r="4" fill="#F0F0F0"/>
<circle cx="120" cy="94" r="4" fill="#F0F0F0"/>
<circle cx="136" cy="94" r="4" fill="#F0F0F0"/>
<circle cx="152" cy="94" r="4" fill="#F0F0F0"/>
<circle cx="168" cy="94" r="4" fill="#F0F0F0"/>
<circle cx="184" cy="94" r="4" fill="#F0F0F0"/>
<circle cx="200" cy="94" r="4" fill="#F0F0F0"/>
<circle cx="216" cy="94" r="4" fill="#F0F0F0"/>
<circle cx="232" cy="94" r="4" fill="#F0F0F0"/>
<circle cx="4" cy="112" r="4" fill="#F0F0F0"/>
<circle cx="22" cy="112" r="4" fill="#F0F0F0"/>
<circle cx="40" cy="112" r="4" fill="#F0F0F0"/>
<circle cx="56" cy="112" r="4" fill="#F0F0F0"/>
<circle cx="72" cy="112" r="4" fill="#F0F0F0"/>
<circle cx="88" cy="112" r="4" fill="#F0F0F0"/>
<circle cx="104" cy="112" r="4" fill="#F0F0F0"/>
<circle cx="120" cy="112" r="4" fill="#F0F0F0"/>
<circle cx="136" cy="112" r="4" fill="#F0F0F0"/>
<circle cx="152" cy="112" r="4" fill="#F0F0F0"/>
<circle cx="168" cy="112" r="4" fill="#F0F0F0"/>
<circle cx="184" cy="112" r="4" fill="#F0F0F0"/>
<circle cx="200" cy="112" r="4" fill="#F0F0F0"/>
<circle cx="216" cy="112" r="4" fill="#F0F0F0"/>
<circle cx="232" cy="112" r="4" fill="#F0F0F0"/>
<circle cx="4" cy="130" r="4" fill="#F0F0F0"/>
<circle cx="22" cy="130" r="4" fill="#F0F0F0"/>
<circle cx="40" cy="130" r="4" fill="#F0F0F0"/>
<circle cx="56" cy="130" r="4" fill="#F0F0F0"/>
<circle cx="72" cy="130" r="4" fill="#F0F0F0"/>
<circle cx="88" cy="130" r="4" fill="#F0F0F0"/>
<circle cx="104" cy="130" r="4" fill="#F0F0F0"/>
<circle cx="120" cy="130" r="4" fill="#F0F0F0"/>
<circle cx="136" cy="130" r="4" fill="#F0F0F0"/>
<circle cx="152" cy="130" r="4" fill="#F0F0F0"/>
<circle cx="168" cy="130" r="4" fill="#F0F0F0"/>
<circle cx="184" cy="130" r="4" fill="#F0F0F0"/>
<circle cx="200" cy="130" r="4" fill="#F0F0F0"/>
<circle cx="216" cy="130" r="4" fill="#F0F0F0"/>
<circle cx="232" cy="130" r="4" fill="#F0F0F0"/>
<circle cx="4" cy="148" r="4" fill="#F0F0F0"/>
<circle cx="22" cy="148" r="4" fill="#F0F0F0"/>
<circle cx="40" cy="148" r="4" fill="#F0F0F0"/>
<circle cx="56" cy="148" r="4" fill="#F0F0F0"/>
<circle cx="72" cy="148" r="4" fill="#F0F0F0"/>
<circle cx="88" cy="148" r="4" fill="#F0F0F0"/>
<circle cx="104" cy="148" r="4" fill="#F0F0F0"/>
<circle cx="120" cy="148" r="4" fill="#F0F0F0"/>
<circle cx="136" cy="148" r="4" fill="#F0F0F0"/>
<circle cx="152" cy="148" r="4" fill="#F0F0F0"/>
<circle cx="168" cy="148" r="4" fill="#F0F0F0"/>
<circle cx="184" cy="148" r="4" fill="#F0F0F0"/>
<circle cx="200" cy="148" r="4" fill="#F0F0F0"/>
<circle cx="216" cy="148" r="4" fill="#F0F0F0"/>
<circle cx="232" cy="148" r="4" fill="#F0F0F0"/>
<circle cx="4" cy="166" r="4" fill="#F0F0F0"/>
<circle cx="22" cy="166" r="4" fill="#F0F0F0"/>
<circle cx="40" cy="166" r="4" fill="#F0F0F0"/>
<circle cx="56" cy="166" r="4" fill="#F0F0F0"/>
<circle cx="72" cy="166" r="4" fill="#F0F0F0"/>
<circle cx="88" cy="166" r="4" fill="#F0F0F0"/>
<circle cx="104" cy="166" r="4" fill="#F0F0F0"/>
<circle cx="120" cy="166" r="4" fill="#F0F0F0"/>
<circle cx="136" cy="166" r="4" fill="#F0F0F0"/>
<circle cx="152" cy="166" r="4" fill="#F0F0F0"/>
<circle cx="168" cy="166" r="4" fill="#F0F0F0"/>
<circle cx="184" cy="166" r="4" fill="#F0F0F0"/>
<circle cx="200" cy="166" r="4" fill="#F0F0F0"/>
<circle cx="216" cy="166" r="4" fill="#F0F0F0"/>
<circle cx="232" cy="166" r="4" fill="#F0F0F0"/>
<circle cx="4" cy="184" r="4" fill="#F0F0F0"/>
<circle cx="22" cy="184" r="4" fill="#F0F0F0"/>
<circle cx="40" cy="184" r="4" fill="#F0F0F0"/>
<circle cx="56" cy="184" r="4" fill="#F0F0F0"/>
<circle cx="72" cy="184" r="4" fill="#F0F0F0"/>
<circle cx="88" cy="184" r="4" fill="#F0F0F0"/>
<circle cx="104" cy="184" r="4" fill="#F0F0F0"/>
<circle cx="120" cy="184" r="4" fill="#F0F0F0"/>
<circle cx="136" cy="184" r="4" fill="#F0F0F0"/>
<circle cx="152" cy="184" r="4" fill="#F0F0F0"/>
<circle cx="168" cy="184" r="4" fill="#F0F0F0"/>
<circle cx="184" cy="184" r="4" fill="#F0F0F0"/>
<circle cx="200" cy="184" r="4" fill="#F0F0F0"/>
<circle cx="216" cy="184" r="4" fill="#F0F0F0"/>
<circle cx="232" cy="184" r="4" fill="#F0F0F0"/>
<circle cx="4" cy="202" r="4" fill="#F0F0F0"/>
<circle cx="22" cy="202" r="4" fill="#F0F0F0"/>
<circle cx="40" cy="202" r="4" fill="#F0F0F0"/>
<circle cx="56" cy="202" r="4" fill="#F0F0F0"/>
<circle cx="72" cy="202" r="4" fill="#F0F0F0"/>
<circle cx="88" cy="202" r="4" fill="#F0F0F0"/>
<circle cx="104" cy="202" r="4" fill="#F0F0F0"/>
<circle cx="120" cy="202" r="4" fill="#F0F0F0"/>
<circle cx="136" cy="202" r="4" fill="#F0F0F0"/>
<circle cx="152" cy="202" r="4" fill="#F0F0F0"/>
<circle cx="168" cy="202" r="4" fill="#F0F0F0"/>
<circle cx="184" cy="202" r="4" fill="#F0F0F0"/>
<circle cx="200" cy="202" r="4" fill="#F0F0F0"/>
<circle cx="216" cy="202" r="4" fill="#F0F0F0"/>
<circle cx="232" cy="202" r="4" fill="#F0F0F0"/>
<circle cx="4" cy="220" r="4" fill="#F0F0F0"/>
<circle cx="22" cy="220" r="4" fill="#F0F0F0"/>
<circle cx="40" cy="220" r="4" fill="#F0F0F0"/>
<circle cx="56" cy="220" r="4" fill="#F0F0F0"/>
<circle cx="72" cy="220" r="4" fill="#F0F0F0"/>
<circle cx="88" cy="220" r="4" fill="#F0F0F0"/>
<circle cx="104" cy="220" r="4" fill="#F0F0F0"/>
<circle cx="120" cy="220" r="4" fill="#F0F0F0"/>
<circle cx="136" cy="220" r="4" fill="#F0F0F0"/>
<circle cx="152" cy="220" r="4" fill="#F0F0F0"/>
<circle cx="168" cy="220" r="4" fill="#F0F0F0"/>
<circle cx="184" cy="220" r="4" fill="#F0F0F0"/>
<circle cx="200" cy="220" r="4" fill="#F0F0F0"/>
<circle cx="216" cy="220" r="4" fill="#F0F0F0"/>
<circle cx="232" cy="220" r="4" fill="#F0F0F0"/>
<circle cx="4" cy="238" r="4" fill="#F0F0F0"/>
<circle cx="22" cy="238" r="4" fill="#F0F0F0"/>
<circle cx="40" cy="238" r="4" fill="#F0F0F0"/>
<circle cx="56" cy="238" r="4" fill="#F0F0F0"/>
<circle cx="72" cy="238" r="4" fill="#F0F0F0"/>
<circle cx="88" cy="238" r="4" fill="#F0F0F0"/>
<circle cx="104" cy="238" r="4" fill="#F0F0F0"/>
<circle cx="120" cy="238" r="4" fill="#F0F0F0"/>
<circle cx="136" cy="238" r="4" fill="#F0F0F0"/>
<circle cx="152" cy="238" r="4" fill="#F0F0F0"/>
<circle cx="168" cy="238" r="4" fill="#F0F0F0"/>
<circle cx="184" cy="238" r="4" fill="#F0F0F0"/>
<circle cx="200" cy="238" r="4" fill="#F0F0F0"/>
<circle cx="216" cy="238" r="4" fill="#F0F0F0"/>
<circle cx="232" cy="238" r="4" fill="#F0F0F0"/>
<circle cx="4" cy="256" r="4" fill="#F0F0F0"/>
<circle cx="22" cy="256" r="4" fill="#F0F0F0"/>
<circle cx="40" cy="256" r="4" fill="#F0F0F0"/>
<circle cx="56" cy="256" r="4" fill="#F0F0F0"/>
<circle cx="72" cy="256" r="4" fill="#F0F0F0"/>
<circle cx="88" cy="256" r="4" fill="#F0F0F0"/>
<circle cx="104" cy="256" r="4" fill="#F0F0F0"/>
<circle cx="120" cy="256" r="4" fill="#F0F0F0"/>
<circle cx="136" cy="256" r="4" fill="#F0F0F0"/>
<circle cx="152" cy="256" r="4" fill="#F0F0F0"/>
<circle cx="168" cy="256" r="4" fill="#F0F0F0"/>
<circle cx="184" cy="256" r="4" fill="#F0F0F0"/>
<circle cx="200" cy="256" r="4" fill="#F0F0F0"/>
<circle cx="216" cy="256" r="4" fill="#F0F0F0"/>
<circle cx="232" cy="256" r="4" fill="#F0F0F0"/>
</svg>
