<svg width="677" height="176" viewBox="0 0 677 176" fill="none" xmlns="http://www.w3.org/2000/svg">
<path d="M642.088 98.7818C642.191 102.141 640.27 105.47 636.319 108.732C632.373 111.99 626.473 115.12 618.793 118.08C603.438 124 581.087 129.199 553.364 133.421C497.925 141.864 421.1 146.384 336.031 144.974C250.962 143.564 173.781 136.493 117.768 126.203C89.7579 121.057 67.0648 115.111 51.3314 108.677C43.4623 105.458 37.3636 102.13 33.2142 98.7381C29.0589 95.3418 26.9314 91.945 26.8284 88.586C26.7254 85.2271 28.6467 81.8974 32.5978 78.6354C36.5433 75.378 42.444 72.2481 50.1237 69.2875C65.4782 63.3682 87.8295 58.1685 115.553 53.9465C170.991 45.5036 247.817 40.9839 332.886 42.3937C417.954 43.8034 495.135 50.8752 551.148 61.1649C579.159 66.3105 601.852 72.2567 617.585 78.6912C625.454 81.9094 631.553 85.2382 635.702 88.6297C639.858 92.0261 641.985 95.4229 642.088 98.7818Z" stroke="#C83E34"/>
<path d="M664.008 81.1442C664.471 84.1284 662.83 87.1952 658.997 90.2984C655.179 93.3895 649.281 96.4355 641.487 99.3916C625.905 105.302 602.859 110.811 574.04 115.629C516.41 125.263 435.777 132.118 345.804 133.906C255.831 135.694 173.575 132.077 113.321 124.786C83.1905 121.139 58.5837 116.577 41.2715 111.321C32.612 108.692 25.8089 105.898 21.0587 102.978C16.2902 100.045 13.712 97.0624 13.2495 94.0783C12.787 91.0941 14.4275 88.0273 18.2606 84.9242C22.079 81.833 27.9771 78.787 35.7709 75.8309C51.3525 69.921 74.3983 64.4116 103.217 59.5939C160.848 49.9596 241.481 43.1046 331.454 41.3163C421.426 39.5281 503.683 43.1456 563.936 50.4369C594.067 54.083 618.674 58.6453 635.986 63.9014C644.646 66.5305 651.449 69.3241 656.199 72.2449C660.967 75.1771 663.546 78.1601 664.008 81.1442Z" stroke="#C83E34"/>
</svg>
