<svg width="329" height="108" viewBox="0 0 329 108" fill="none" xmlns="http://www.w3.org/2000/svg">
<path d="M323.669 49.2366C324.025 54.9422 320.186 60.6995 312.641 66.2258C305.117 71.7375 294.021 76.9305 280.152 81.5208C252.421 90.6992 213.71 97.4318 170.599 99.5302C127.487 101.629 88.1734 98.6939 59.4677 92.2626C45.1112 89.0462 33.437 84.9615 25.272 80.2135C17.0854 75.4529 12.5525 70.1031 12.1964 64.3975C11.8403 58.6919 15.6799 52.9346 23.2245 47.4083C30.7492 41.8966 41.8444 36.7035 55.7136 32.1132C83.4451 22.9349 122.155 16.2023 165.267 14.1038C208.379 12.0054 247.692 14.9402 276.398 21.3714C290.755 24.5878 302.429 28.6726 310.594 33.4206C318.78 38.1812 323.313 43.5309 323.669 49.2366Z" stroke="#C83E34"/>
<path d="M322.968 30.5116C323.267 32.4279 322.556 34.4591 320.79 36.5922C319.025 38.7252 316.244 40.9119 312.52 43.1145C305.074 47.5181 293.962 51.927 279.989 56.0875C252.052 64.4061 212.78 71.7033 168.798 76.0002C124.815 80.2972 84.4777 80.7777 54.8196 78.086C39.9863 76.7397 27.8507 74.6022 19.2733 71.7639C14.983 70.3443 11.6121 68.7586 9.24325 67.0295C6.87426 65.3003 5.55853 63.4672 5.25902 61.5509C4.9595 59.6347 5.67123 57.6035 7.43654 55.4703C9.20173 53.3374 11.983 51.1507 15.7072 48.948C23.1526 44.5444 34.2651 40.1355 48.2376 35.975C76.1748 27.6564 115.447 20.3593 159.429 16.0623C203.411 11.7654 243.749 11.2848 273.407 13.9766C288.24 15.3228 300.376 17.4604 308.953 20.2986C313.244 21.7183 316.615 23.3039 318.984 25.033C321.353 26.7622 322.668 28.5953 322.968 30.5116Z" stroke="#C83E34"/>
</svg>
