<svg xmlns="http://www.w3.org/2000/svg" xmlns:xlink="http://www.w3.org/1999/xlink"><symbol id="circle" viewBox="0 0 494 494"><path d="M120.505 458.357C3.695 388.578-34.433 237.316 35.347 120.505 105.126 3.695 256.388-34.432 373.199 35.347c116.811 69.779 154.938 221.041 85.158 337.852-69.779 116.811-221.041 154.938-337.852 85.158zm200.867-336.252c-68.896-41.156-158.111-18.669-199.267 50.227-41.156 68.896-18.669 158.111 50.227 199.267 68.896 41.156 158.111 18.669 199.267-50.227 41.156-68.896 18.669-158.111-50.227-199.267z"/></symbol><symbol id="dots" viewBox="0 0 236 262"><circle cx="4" cy="4" r="4"/><ellipse cx="21.2" cy="4" rx="3.2" ry="4"/><circle cx="38" cy="4" r="4"/><circle cx="54" cy="4" r="4"/><circle cx="70" cy="4" r="4"/><circle cx="86" cy="4" r="4"/><circle cx="102" cy="4" r="4"/><circle cx="118" cy="4" r="4"/><circle cx="134" cy="4" r="4"/><circle cx="150" cy="4" r="4"/><circle cx="166" cy="4" r="4"/><circle cx="182" cy="4" r="4"/><circle cx="198" cy="4" r="4"/><circle cx="214" cy="4" r="4"/><circle cx="230" cy="4" r="4"/><circle cx="4" cy="22" r="4"/><circle cx="22" cy="22" r="4"/><circle cx="40" cy="22" r="4"/><circle cx="56" cy="22" r="4"/><circle cx="72" cy="22" r="4"/><circle cx="88" cy="22" r="4"/><circle cx="104" cy="22" r="4"/><circle cx="120" cy="22" r="4"/><circle cx="136" cy="22" r="4"/><circle cx="152" cy="22" r="4"/><circle cx="168" cy="22" r="4"/><circle cx="184" cy="22" r="4"/><circle cx="200" cy="22" r="4"/><circle cx="216" cy="22" r="4"/><circle cx="232" cy="22" r="4"/><circle cx="4" cy="40" r="4"/><circle cx="22" cy="40" r="4"/><circle cx="40" cy="40" r="4"/><circle cx="56" cy="40" r="4"/><circle cx="72" cy="40" r="4"/><circle cx="88" cy="40" r="4"/><circle cx="104" cy="40" r="4"/><circle cx="120" cy="40" r="4"/><circle cx="136" cy="40" r="4"/><circle cx="152" cy="40" r="4"/><circle cx="168" cy="40" r="4"/><circle cx="184" cy="40" r="4"/><circle cx="200" cy="40" r="4"/><circle cx="216" cy="40" r="4"/><circle cx="232" cy="40" r="4"/><circle cx="4" cy="58" r="4"/><circle cx="22" cy="58" r="4"/><circle cx="40" cy="58" r="4"/><circle cx="56" cy="58" r="4"/><circle cx="72" cy="58" r="4"/><circle cx="88" cy="58" r="4"/><circle cx="104" cy="58" r="4"/><circle cx="120" cy="58" r="4"/><circle cx="136" cy="58" r="4"/><circle cx="152" cy="58" r="4"/><circle cx="168" cy="58" r="4"/><circle cx="184" cy="58" r="4"/><circle cx="200" cy="58" r="4"/><circle cx="216" cy="58" r="4"/><circle cx="232" cy="58" r="4"/><circle cx="4" cy="76" r="4"/><circle cx="22" cy="76" r="4"/><circle cx="40" cy="76" r="4"/><circle cx="56" cy="76" r="4"/><circle cx="72" cy="76" r="4"/><circle cx="88" cy="76" r="4"/><circle cx="104" cy="76" r="4"/><circle cx="120" cy="76" r="4"/><circle cx="136" cy="76" r="4"/><circle cx="152" cy="76" r="4"/><circle cx="168" cy="76" r="4"/><circle cx="184" cy="76" r="4"/><circle cx="200" cy="76" r="4"/><circle cx="216" cy="76" r="4"/><circle cx="232" cy="76" r="4"/><circle cx="4" cy="94" r="4"/><circle cx="22" cy="94" r="4"/><circle cx="40" cy="94" r="4"/><circle cx="56" cy="94" r="4"/><circle cx="72" cy="94" r="4"/><circle cx="88" cy="94" r="4"/><circle cx="104" cy="94" r="4"/><circle cx="120" cy="94" r="4"/><circle cx="136" cy="94" r="4"/><circle cx="152" cy="94" r="4"/><circle cx="168" cy="94" r="4"/><circle cx="184" cy="94" r="4"/><circle cx="200" cy="94" r="4"/><circle cx="216" cy="94" r="4"/><circle cx="232" cy="94" r="4"/><circle cx="4" cy="112" r="4"/><circle cx="22" cy="112" r="4"/><circle cx="40" cy="112" r="4"/><circle cx="56" cy="112" r="4"/><circle cx="72" cy="112" r="4"/><circle cx="88" cy="112" r="4"/><circle cx="104" cy="112" r="4"/><circle cx="120" cy="112" r="4"/><circle cx="136" cy="112" r="4"/><circle cx="152" cy="112" r="4"/><circle cx="168" cy="112" r="4"/><circle cx="184" cy="112" r="4"/><circle cx="200" cy="112" r="4"/><circle cx="216" cy="112" r="4"/><circle cx="232" cy="112" r="4"/><circle cx="4" cy="130" r="4"/><circle cx="22" cy="130" r="4"/><circle cx="40" cy="130" r="4"/><circle cx="56" cy="130" r="4"/><circle cx="72" cy="130" r="4"/><circle cx="88" cy="130" r="4"/><circle cx="104" cy="130" r="4"/><circle cx="120" cy="130" r="4"/><circle cx="136" cy="130" r="4"/><circle cx="152" cy="130" r="4"/><circle cx="168" cy="130" r="4"/><circle cx="184" cy="130" r="4"/><circle cx="200" cy="130" r="4"/><circle cx="216" cy="130" r="4"/><circle cx="232" cy="130" r="4"/><circle cx="4" cy="148" r="4"/><circle cx="22" cy="148" r="4"/><circle cx="40" cy="148" r="4"/><circle cx="56" cy="148" r="4"/><circle cx="72" cy="148" r="4"/><circle cx="88" cy="148" r="4"/><circle cx="104" cy="148" r="4"/><circle cx="120" cy="148" r="4"/><circle cx="136" cy="148" r="4"/><circle cx="152" cy="148" r="4"/><circle cx="168" cy="148" r="4"/><circle cx="184" cy="148" r="4"/><circle cx="200" cy="148" r="4"/><circle cx="216" cy="148" r="4"/><circle cx="232" cy="148" r="4"/><circle cx="4" cy="166" r="4"/><circle cx="22" cy="166" r="4"/><circle cx="40" cy="166" r="4"/><circle cx="56" cy="166" r="4"/><circle cx="72" cy="166" r="4"/><circle cx="88" cy="166" r="4"/><circle cx="104" cy="166" r="4"/><circle cx="120" cy="166" r="4"/><circle cx="136" cy="166" r="4"/><circle cx="152" cy="166" r="4"/><circle cx="168" cy="166" r="4"/><circle cx="184" cy="166" r="4"/><circle cx="200" cy="166" r="4"/><circle cx="216" cy="166" r="4"/><circle cx="232" cy="166" r="4"/><circle cx="4" cy="184" r="4"/><circle cx="22" cy="184" r="4"/><circle cx="40" cy="184" r="4"/><circle cx="56" cy="184" r="4"/><circle cx="72" cy="184" r="4"/><circle cx="88" cy="184" r="4"/><circle cx="104" cy="184" r="4"/><circle cx="120" cy="184" r="4"/><circle cx="136" cy="184" r="4"/><circle cx="152" cy="184" r="4"/><circle cx="168" cy="184" r="4"/><circle cx="184" cy="184" r="4"/><circle cx="200" cy="184" r="4"/><circle cx="216" cy="184" r="4"/><circle cx="232" cy="184" r="4"/><circle cx="4" cy="202" r="4"/><circle cx="22" cy="202" r="4"/><circle cx="40" cy="202" r="4"/><circle cx="56" cy="202" r="4"/><circle cx="72" cy="202" r="4"/><circle cx="88" cy="202" r="4"/><circle cx="104" cy="202" r="4"/><circle cx="120" cy="202" r="4"/><circle cx="136" cy="202" r="4"/><circle cx="152" cy="202" r="4"/><circle cx="168" cy="202" r="4"/><circle cx="184" cy="202" r="4"/><circle cx="200" cy="202" r="4"/><circle cx="216" cy="202" r="4"/><circle cx="232" cy="202" r="4"/><circle cx="4" cy="220" r="4"/><circle cx="22" cy="220" r="4"/><circle cx="40" cy="220" r="4"/><circle cx="56" cy="220" r="4"/><circle cx="72" cy="220" r="4"/><circle cx="88" cy="220" r="4"/><circle cx="104" cy="220" r="4"/><circle cx="120" cy="220" r="4"/><circle cx="136" cy="220" r="4"/><circle cx="152" cy="220" r="4"/><circle cx="168" cy="220" r="4"/><circle cx="184" cy="220" r="4"/><circle cx="200" cy="220" r="4"/><circle cx="216" cy="220" r="4"/><circle cx="232" cy="220" r="4"/><circle cx="4" cy="238" r="4"/><circle cx="22" cy="238" r="4"/><circle cx="40" cy="238" r="4"/><circle cx="56" cy="238" r="4"/><circle cx="72" cy="238" r="4"/><circle cx="88" cy="238" r="4"/><circle cx="104" cy="238" r="4"/><circle cx="120" cy="238" r="4"/><circle cx="136" cy="238" r="4"/><circle cx="152" cy="238" r="4"/><circle cx="168" cy="238" r="4"/><circle cx="184" cy="238" r="4"/><circle cx="200" cy="238" r="4"/><circle cx="216" cy="238" r="4"/><circle cx="232" cy="238" r="4"/><circle cx="4" cy="256" r="4"/><circle cx="22" cy="256" r="4"/><circle cx="40" cy="256" r="4"/><circle cx="56" cy="256" r="4"/><circle cx="72" cy="256" r="4"/><circle cx="88" cy="256" r="4"/><circle cx="104" cy="256" r="4"/><circle cx="120" cy="256" r="4"/><circle cx="136" cy="256" r="4"/><circle cx="152" cy="256" r="4"/><circle cx="168" cy="256" r="4"/><circle cx="184" cy="256" r="4"/><circle cx="200" cy="256" r="4"/><circle cx="216" cy="256" r="4"/><circle cx="232" cy="256" r="4"/></symbol><symbol id="ellipses" viewBox="0 0 329 108"><path d="M323.669 49.237c.356 5.705-3.483 11.462-11.028 16.989-7.524 5.511-18.62 10.704-32.489 15.295-27.731 9.178-66.442 15.91-109.553 18.01-43.112 2.098-82.426-.837-111.131-7.268-14.357-3.217-26.031-7.302-34.196-12.05-8.187-4.76-12.72-10.11-13.076-15.816-.356-5.705 3.484-11.462 11.028-16.989 7.525-5.511 18.62-10.705 32.49-15.295 27.731-9.178 66.441-15.91 109.553-18.01 43.112-2.098 82.425.837 111.131 7.268 14.357 3.217 26.031 7.302 34.196 12.05 8.186 4.76 12.719 10.11 13.075 15.816z"/><path d="M322.968 30.512c.299 1.916-.412 3.947-2.178 6.08-1.765 2.133-4.546 4.32-8.27 6.523-7.446 4.403-18.558 8.812-32.531 12.972C252.052 64.407 212.78 71.703 168.798 76c-43.983 4.297-84.32 4.778-113.978 2.086-14.834-1.346-26.97-3.484-35.547-6.322-4.29-1.42-7.66-3.005-10.03-4.734-2.369-1.73-3.684-3.563-3.984-5.48-.3-1.915.412-3.947 2.178-6.08 1.765-2.133 4.546-4.32 8.27-6.522 7.446-4.404 18.558-8.813 32.53-12.973 27.938-8.319 67.21-15.616 111.192-19.913 43.982-4.297 84.32-4.777 113.978-2.085 14.833 1.346 26.969 3.483 35.546 6.322 4.291 1.42 7.662 3.005 10.031 4.734 2.369 1.73 3.684 3.562 3.984 5.479z"/></symbol></svg>