<svg width="135" height="135" viewBox="0 0 135 135" fill="none" xmlns="http://www.w3.org/2000/svg">
<g clip-path="url(#clip0_2_2884)">
<path d="M119.941 69.5342C119.941 69.7684 119.94 70.0032 119.938 70.2364C119.928 70.938 119.907 71.6369 119.871 72.3315C118.759 94.3426 104.604 112.9 85.0083 120.377C84.8018 120.455 84.5952 120.533 84.3876 120.609C83.7654 120.838 83.1372 121.055 82.5042 121.262C82.2933 121.33 82.0814 121.398 81.8695 121.464C80.5976 121.861 79.3047 122.212 77.994 122.516C77.5573 122.617 77.1179 122.713 76.6774 122.804C75.5754 123.031 74.4605 123.223 73.3348 123.381C73.1095 123.413 72.8847 123.443 72.6582 123.472C72.2059 123.53 71.7526 123.582 71.297 123.628C71.0695 123.652 70.8415 123.674 70.6129 123.694C70.1558 123.735 69.6975 123.77 69.2372 123.799C68.0868 123.872 66.9267 123.91 65.7574 123.91C64.5882 123.91 63.4276 123.872 62.2777 123.799C61.8174 123.77 61.3586 123.735 60.9014 123.694C60.6734 123.674 60.4454 123.652 60.2173 123.628C59.7618 123.582 59.3084 123.53 58.8561 123.472C58.6297 123.443 58.4043 123.413 58.179 123.381C57.0539 123.223 55.9389 123.031 54.837 122.804C54.3954 122.713 53.9571 122.617 53.5198 122.516C52.2097 122.212 50.9168 121.861 49.6437 121.464C49.4318 121.398 49.2205 121.33 49.0096 121.262C48.3766 121.055 47.749 120.838 47.1262 120.609C46.9191 120.533 46.7126 120.455 46.5061 120.377C26.9094 112.901 12.755 94.3431 11.6428 72.3315C11.6137 71.7535 11.5938 71.1728 11.5825 70.5899C11.5804 70.4722 11.5788 70.354 11.5772 70.2358C11.5761 70.15 11.575 70.0653 11.5739 69.9789C11.5729 69.8305 11.5723 69.6815 11.5723 69.5337C11.5723 68.8876 11.5836 68.2443 11.6062 67.6037C11.6132 67.4024 11.6213 67.201 11.6304 66.9997C11.6342 66.9112 11.6385 66.8238 11.6428 66.7353C11.6659 66.2717 11.6955 65.8102 11.7299 65.3498C11.7477 65.1199 11.7665 64.89 11.7869 64.6606C11.8278 64.2024 11.8735 63.7447 11.9251 63.2898C11.9773 62.8342 12.0349 62.3809 12.0978 61.9286C12.1919 61.2513 12.2989 60.5777 12.4183 59.9085C13.473 53.9835 15.485 48.3916 18.2865 43.2983C18.379 43.1289 18.4731 42.9605 18.5683 42.7926C19.6757 40.8281 20.9014 38.9402 22.2363 37.1381C22.3116 37.0361 22.3874 36.9351 22.4627 36.8337C23.7239 35.1552 25.0792 33.5522 26.5211 32.0329C26.5308 32.0232 26.5405 32.0124 26.5496 32.0027C28.4895 29.9632 30.5854 28.0747 32.8179 26.3568C33.8516 25.5618 34.9138 24.803 36.0045 24.083C37.0947 23.363 38.2123 22.6814 39.3552 22.0402C39.736 21.8259 40.12 21.6171 40.5067 21.4125C40.8928 21.2074 41.2827 21.0072 41.6748 20.8118C41.934 20.6823 42.1949 20.556 42.4563 20.4313C42.9247 20.2068 43.3975 19.9888 43.874 19.7777C43.9966 19.7232 44.1192 19.6692 44.2418 19.6158C44.5839 19.4669 44.9281 19.3206 45.2745 19.1787C45.6827 19.0113 46.093 18.8489 46.5055 18.6918C46.7121 18.6125 46.918 18.5353 47.1256 18.4592C47.387 18.3631 47.6484 18.2703 47.9114 18.1786C48.2761 18.0512 48.6418 17.9265 49.0091 17.8067C49.2205 17.7382 49.4318 17.6702 49.6432 17.6043C50.0675 17.4721 50.494 17.3447 50.9221 17.2227C51.994 16.9178 53.0793 16.6442 54.1765 16.4045C54.6154 16.3085 55.0564 16.2178 55.499 16.1325C55.9422 16.0472 56.3864 15.9679 56.8333 15.8934C57.5029 15.7817 58.1768 15.6829 58.8556 15.5966C59.3073 15.5388 59.7613 15.4865 60.2168 15.4401C60.4443 15.4174 60.6723 15.3958 60.9009 15.3753C61.3581 15.3343 61.8168 15.2992 62.2772 15.2701C63.4276 15.1967 64.5877 15.1594 65.7569 15.1594C66.9261 15.1594 68.0862 15.1967 69.2366 15.2701C69.697 15.2992 70.1552 15.3348 70.6124 15.3753C70.8409 15.3958 71.069 15.4169 71.2965 15.4401C71.752 15.487 72.2054 15.5394 72.6577 15.5966C73.3354 15.6829 74.0098 15.7817 74.6794 15.8934C75.1263 15.9674 75.5711 16.0472 76.0143 16.1325C76.4569 16.2178 76.8979 16.3085 77.3368 16.4045C78.4345 16.6442 79.5192 16.9178 80.5906 17.2227C81.0192 17.3447 81.4463 17.4721 81.8695 17.6043C82.082 17.6707 82.2933 17.7382 82.5042 17.8067C82.8715 17.9265 83.2378 18.0512 83.6024 18.1786C83.8649 18.2703 84.1268 18.3631 84.3876 18.4592C84.5952 18.5353 84.8018 18.6125 85.0083 18.6918C85.4208 18.8489 85.8311 19.0113 86.2383 19.1787C86.5852 19.3206 86.9294 19.4669 87.272 19.6158C87.3946 19.6692 87.5172 19.7227 87.6393 19.7777C88.1153 19.9888 88.588 20.2068 89.0575 20.4313C89.3189 20.556 89.5798 20.6834 89.8385 20.8118C90.2305 21.0072 90.6199 21.2074 91.0066 21.4125C91.3933 21.6171 91.7773 21.8259 92.1581 22.0402C93.3015 22.6814 94.4191 23.3625 95.5093 24.083C96.5994 24.803 97.6622 25.5624 98.6953 26.3568C100.928 28.0747 103.024 29.9632 104.964 32.0027C104.973 32.0124 104.983 32.0232 104.992 32.0329C106.435 33.5522 107.789 35.1557 109.051 36.8337C109.126 36.9351 109.202 37.0361 109.278 37.1381C110.612 38.9402 111.837 40.8281 112.945 42.7926C113.04 42.9605 113.134 43.1289 113.227 43.2983C116.028 48.3921 118.04 53.9841 119.095 59.9085C119.214 60.5777 119.321 61.2513 119.416 61.9291C119.479 62.3809 119.536 62.8342 119.588 63.2898C119.64 63.7447 119.687 64.2019 119.727 64.6606C119.747 64.89 119.766 65.1199 119.783 65.3498C119.818 65.8102 119.847 66.2722 119.87 66.7353C119.918 67.663 119.941 68.5956 119.941 69.5342Z" fill="#C83E34"/>
<path d="M65.7575 114.771C90.6538 114.771 110.836 94.5179 110.836 69.5342C110.836 44.5505 90.6538 24.2972 65.7575 24.2972C40.8612 24.2972 20.6788 44.5505 20.6788 69.5342C20.6788 94.5179 40.8612 114.771 65.7575 114.771Z" fill="white"/>
<path d="M65.7575 105.359C85.4735 105.359 101.457 89.3194 101.457 69.5342C101.457 49.7489 85.4735 33.7098 65.7575 33.7098C46.0414 33.7098 30.0584 49.7489 30.0584 69.5342C30.0584 89.3194 46.0414 105.359 65.7575 105.359Z" fill="#C83E34"/>
<path d="M65.7575 96.6984C80.7073 96.6984 92.8266 84.5366 92.8266 69.5342C92.8266 54.5318 80.7073 42.37 65.7575 42.37C50.8076 42.37 38.6883 54.5318 38.6883 69.5342C38.6883 84.5366 50.8076 96.6984 65.7575 96.6984Z" fill="white"/>
<path d="M79.1126 83.0891C86.4889 75.6869 86.4889 63.6856 79.1126 56.2835C71.7363 48.8813 59.777 48.8813 52.4007 56.2835C45.0244 63.6856 45.0244 75.6869 52.4007 83.0891C59.777 90.4913 71.7363 90.4913 79.1126 83.0891Z" fill="#C83E34"/>
<path d="M65.7574 78.189C70.7657 78.189 74.8257 74.1147 74.8257 69.0889C74.8257 64.0631 70.7657 59.9888 65.7574 59.9888C60.7492 59.9888 56.6892 64.0631 56.6892 69.0889C56.6892 74.1147 60.7492 78.189 65.7574 78.189Z" fill="white"/>
<path opacity="0.11" d="M84.4893 72.1879C83.6487 78.719 79.4951 84.2078 73.7753 86.9031L60.2324 76.3583L60.2346 76.355C61.7636 77.5359 63.6793 78.2381 65.758 78.2381C70.7657 78.2381 74.8262 74.1644 74.8262 69.1386C74.8262 66.2312 73.4672 63.6422 71.3524 61.9761L71.3605 61.9658L84.4893 72.1879Z" fill="black"/>
<path opacity="0.11" d="M101.506 69.5838C101.506 88.7646 86.4846 104.425 67.6033 105.364L49.4528 91.2321C53.9958 94.6944 59.6623 96.7485 65.8069 96.7485C80.7568 96.7485 92.8761 84.5867 92.8761 69.5838C92.8761 61.3003 89.1813 53.882 83.355 48.9005L100.806 62.4877C101.265 64.7809 101.506 67.154 101.506 69.5838Z" fill="black"/>
<path opacity="0.11" d="M119.941 69.5341C119.941 69.7684 119.94 70.0032 119.938 70.2363C119.928 70.9379 119.907 71.6369 119.871 72.3315C118.759 94.3425 104.604 112.9 85.0083 120.377C84.8017 120.455 84.5952 120.533 84.3876 120.609C83.7654 120.838 83.1372 121.055 82.5042 121.262C82.2933 121.33 82.0814 121.398 81.8695 121.464C80.5976 121.861 79.3047 122.212 77.994 122.516C77.5573 122.617 77.1179 122.713 76.6774 122.804C75.5754 123.031 74.4605 123.223 73.3348 123.381C73.1095 123.413 72.8847 123.443 72.6582 123.472C72.2059 123.53 71.7525 123.582 71.297 123.628C71.0695 123.651 70.8415 123.674 70.6129 123.694C70.1557 123.735 69.6975 123.77 69.2371 123.799C68.0867 123.872 66.9267 123.909 65.7574 123.909C64.5882 123.909 63.4276 123.872 62.2777 123.799C62.1029 123.789 61.9292 123.777 61.7555 123.764L37.1194 104.582L37.1716 104.514C44.9512 110.925 54.9069 114.772 65.758 114.772C90.6543 114.772 110.837 94.519 110.837 69.5352C110.837 54.5626 103.588 41.2889 92.4211 33.0556L92.4464 33.0227L117.149 52.2553C117.975 54.732 118.63 57.2881 119.096 59.9095C119.215 60.5787 119.322 61.2523 119.417 61.9302C119.48 62.3819 119.537 62.8353 119.589 63.2908C119.641 63.7457 119.688 64.2029 119.728 64.6616C119.748 64.891 119.767 65.1209 119.784 65.3508C119.819 65.8112 119.848 66.2732 119.872 66.7363C119.918 67.663 119.941 68.5956 119.941 69.5341Z" fill="black"/>
<path d="M124.638 0L124.653 10.4968L135 10.4342L119.092 26.3983L111.029 26.1986L67.4946 69.8855C66.9433 70.4387 66.0414 70.4387 65.4907 69.8855L65.3766 69.7711C64.8254 69.2179 64.8254 68.3128 65.3766 67.7601L108.932 24.0517L108.676 16.0186L124.638 0Z" fill="#5B6375"/>
<path d="M124.653 10.4968L135 10.4342L119.092 26.3983L111.029 26.1986L67.4947 69.8855C66.9434 70.4387 66.0415 70.4387 65.4907 69.8855L65.4337 69.8283L124.653 10.4013V10.4968Z" fill="#2F363E"/>
</g>
<defs>
<clipPath id="clip0_2_2884">
<rect width="135" height="135" fill="white"/>
</clipPath>
</defs>
</svg>
